<svg width="39" height="36" viewBox="0 0 39 36" fill="none" xmlns="http://www.w3.org/2000/svg">
<g filter="url(#filter0_d_5202_4485)">
<path d="M15.293 19.5C16.1214 19.5 16.793 18.8284 16.793 18C16.793 17.1716 16.1214 16.5 15.293 16.5C14.4645 16.5 13.793 17.1716 13.793 18C13.793 18.8284 14.4645 19.5 15.293 19.5Z" fill="#858584"/>
<path d="M23.293 19.5C24.1214 19.5 24.793 18.8284 24.793 18C24.793 17.1716 24.1214 16.5 23.293 16.5C22.4645 16.5 21.793 17.1716 21.793 18C21.793 18.8284 22.4645 19.5 23.293 19.5Z" fill="#858584"/>
<path fill-rule="evenodd" clip-rule="evenodd" d="M19.2847 9.99959C17.1169 9.98356 14.9598 10.3055 12.8911 10.9539C12.3641 11.119 11.803 10.8257 11.6378 10.2987C11.4727 9.77168 11.766 9.21056 12.293 9.04539C14.5576 8.33563 16.9189 7.98281 19.2921 7.99959C21.6652 7.98281 24.0265 8.33563 26.2911 9.04539C26.8181 9.21056 27.1115 9.77168 26.9463 10.2987C26.7811 10.8257 26.22 11.119 25.693 10.9539C23.6243 10.3055 21.4673 9.98356 19.2995 9.99959H19.2847Z" fill="#858584"/>
<path fill-rule="evenodd" clip-rule="evenodd" d="M11.6378 21.7012C11.803 21.1742 12.3641 20.8809 12.8911 21.046C14.9598 21.6944 17.1169 22.0163 19.2847 22.0003H19.2995C21.4673 22.0163 23.6243 21.6944 25.693 21.046C26.22 20.8809 26.7811 21.1742 26.9463 21.7012C27.1115 22.2282 26.8181 22.7893 26.2911 22.9545C24.0265 23.6643 21.6652 24.0171 19.2921 24.0003C16.9189 24.0171 14.5576 23.6643 12.293 22.9545C11.766 22.7893 11.4727 22.2282 11.6378 21.7012Z" fill="#858584"/>
<path fill-rule="evenodd" clip-rule="evenodd" d="M23.5124 4.81121C23.9429 4.56852 24.4476 4.49267 24.9303 4.59812C26.2479 4.88366 27.5378 5.28424 28.7853 5.79524C29.0661 5.90352 29.3183 6.07496 29.5224 6.29638C29.7286 6.52018 29.88 6.78885 29.9645 7.08115L34.2003 21.2255C34.3108 21.594 34.3134 21.9865 34.2077 22.3563C34.102 22.7262 33.8925 23.0581 33.604 23.3126L33.5989 23.3171C31.5314 25.1161 28.73 26.4777 25.5481 27.2577C25.1061 27.3703 24.6387 27.3265 24.2252 27.1336C23.8134 26.9414 23.4806 26.6132 23.2828 26.2044L21.7745 23.2129C21.5259 22.7197 21.7241 22.1184 22.2173 21.8698C22.7104 21.6211 23.3118 21.8194 23.5604 22.3125L25.0729 25.3125L25.074 25.3147C28.0119 24.5943 30.506 23.3571 32.286 21.8083L32.9425 22.5627L32.2809 21.8128C32.2827 21.8113 32.284 21.8092 32.2846 21.8069C32.2853 21.8046 32.2853 21.8022 32.2846 21.7999L28.0485 7.65465C28.045 7.65325 28.0414 7.65182 28.0379 7.65037C26.895 7.18149 25.713 6.81412 24.5057 6.55253L24.5035 6.55205C24.5005 6.55139 24.4974 6.55186 24.4947 6.55337C24.4923 6.55473 24.4904 6.55684 24.4893 6.55937L23.5044 9.53905C23.3311 10.0634 22.7655 10.348 22.2411 10.1747C21.7167 10.0013 21.4322 9.43574 21.6055 8.91136L22.5959 5.91516C22.7554 5.44707 23.0817 5.0541 23.5124 4.81121Z" fill="#858584"/>
<path fill-rule="evenodd" clip-rule="evenodd" d="M14.0912 6.55337C14.0885 6.55186 14.0854 6.55139 14.0824 6.55205L14.0802 6.55252C12.8729 6.81412 11.6909 7.18148 10.548 7.65037C10.5445 7.65182 10.5409 7.65324 10.5374 7.65465L6.30139 21.7996C6.30071 21.8019 6.30061 21.8046 6.30126 21.8069C6.30185 21.809 6.30297 21.8108 6.30449 21.8123C8.08418 23.3593 10.5766 24.5949 13.5119 25.3147L13.513 25.3125L15.0255 22.3125C15.2741 21.8194 15.8755 21.6211 16.3686 21.8698C16.8618 22.1184 17.06 22.7197 16.8114 23.2129L15.3031 26.2045C15.1052 26.6132 14.7724 26.9414 14.3607 27.1336C13.9472 27.3265 13.4798 27.3703 13.0378 27.2577C9.85584 26.4777 7.05447 25.1161 4.98701 23.3171L4.98183 23.3126C4.69336 23.0581 4.4839 22.7262 4.37821 22.3563C4.27256 21.9865 4.27508 21.5942 4.38546 21.2258C4.38543 21.2259 4.38549 21.2257 4.38546 21.2258L8.62136 7.08117C8.70588 6.78887 8.85723 6.52019 9.06348 6.29638C9.26754 6.07496 9.51976 5.90352 9.80056 5.79524C11.0484 5.28409 12.3387 4.88344 13.6567 4.59788C14.1391 4.49279 14.6433 4.5687 15.0735 4.81121C15.5042 5.05409 15.8305 5.44708 15.99 5.91518L15.9929 5.92385L16.9804 8.91136C17.1537 9.43574 16.8692 10.0013 16.3448 10.1747C15.8204 10.348 15.2548 10.0634 15.0815 9.53905L14.0965 6.55937C14.0955 6.55684 14.0936 6.55473 14.0912 6.55337Z" fill="#858584"/>
<path d="M15.293 19.5C16.1214 19.5 16.793 18.8284 16.793 18C16.793 17.1716 16.1214 16.5 15.293 16.5C14.4645 16.5 13.793 17.1716 13.793 18C13.793 18.8284 14.4645 19.5 15.293 19.5Z" fill="#858584"/>
<path d="M23.293 19.5C24.1214 19.5 24.793 18.8284 24.793 18C24.793 17.1716 24.1214 16.5 23.293 16.5C22.4645 16.5 21.793 17.1716 21.793 18C21.793 18.8284 22.4645 19.5 23.293 19.5Z" fill="#858584"/>
<path fill-rule="evenodd" clip-rule="evenodd" d="M19.2847 9.99959C17.1169 9.98356 14.9598 10.3055 12.8911 10.9539C12.3641 11.119 11.803 10.8257 11.6378 10.2987C11.4727 9.77168 11.766 9.21056 12.293 9.04539C14.5576 8.33563 16.9189 7.98281 19.2921 7.99959C21.6652 7.98281 24.0265 8.33563 26.2911 9.04539C26.8181 9.21056 27.1115 9.77168 26.9463 10.2987C26.7811 10.8257 26.22 11.119 25.693 10.9539C23.6243 10.3055 21.4673 9.98356 19.2995 9.99959H19.2847Z" fill="#858584"/>
<path fill-rule="evenodd" clip-rule="evenodd" d="M11.6378 21.7012C11.803 21.1742 12.3641 20.8809 12.8911 21.046C14.9598 21.6944 17.1169 22.0163 19.2847 22.0003H19.2995C21.4673 22.0163 23.6243 21.6944 25.693 21.046C26.22 20.8809 26.7811 21.1742 26.9463 21.7012C27.1115 22.2282 26.8181 22.7893 26.2911 22.9545C24.0265 23.6643 21.6652 24.0171 19.2921 24.0003C16.9189 24.0171 14.5576 23.6643 12.293 22.9545C11.766 22.7893 11.4727 22.2282 11.6378 21.7012Z" fill="#858584"/>
<path fill-rule="evenodd" clip-rule="evenodd" d="M23.5124 4.81121C23.9429 4.56852 24.4476 4.49267 24.9303 4.59812C26.2479 4.88366 27.5378 5.28424 28.7853 5.79524C29.0661 5.90352 29.3183 6.07496 29.5224 6.29638C29.7286 6.52018 29.88 6.78885 29.9645 7.08115L34.2003 21.2255C34.3108 21.594 34.3134 21.9865 34.2077 22.3563C34.102 22.7262 33.8925 23.0581 33.604 23.3126L33.5989 23.3171C31.5314 25.1161 28.73 26.4777 25.5481 27.2577C25.1061 27.3703 24.6387 27.3265 24.2252 27.1336C23.8134 26.9414 23.4806 26.6132 23.2828 26.2044L21.7745 23.2129C21.5259 22.7197 21.7241 22.1184 22.2173 21.8698C22.7104 21.6211 23.3118 21.8194 23.5604 22.3125L25.0729 25.3125L25.074 25.3147C28.0119 24.5943 30.506 23.3571 32.286 21.8083L32.9425 22.5627L32.2809 21.8128C32.2827 21.8113 32.284 21.8092 32.2846 21.8069C32.2853 21.8046 32.2853 21.8022 32.2846 21.7999L28.0485 7.65465C28.045 7.65325 28.0414 7.65182 28.0379 7.65037C26.895 7.18149 25.713 6.81412 24.5057 6.55253L24.5035 6.55205C24.5005 6.55139 24.4974 6.55186 24.4947 6.55337C24.4923 6.55473 24.4904 6.55684 24.4893 6.55937L23.5044 9.53905C23.3311 10.0634 22.7655 10.348 22.2411 10.1747C21.7167 10.0013 21.4322 9.43574 21.6055 8.91136L22.5959 5.91516C22.7554 5.44707 23.0817 5.0541 23.5124 4.81121Z" fill="#858584"/>
<path fill-rule="evenodd" clip-rule="evenodd" d="M14.0912 6.55337C14.0885 6.55186 14.0854 6.55139 14.0824 6.55205L14.0802 6.55252C12.8729 6.81412 11.6909 7.18148 10.548 7.65037C10.5445 7.65182 10.5409 7.65324 10.5374 7.65465L6.30139 21.7996C6.30071 21.8019 6.30061 21.8046 6.30126 21.8069C6.30185 21.809 6.30297 21.8108 6.30449 21.8123C8.08418 23.3593 10.5766 24.5949 13.5119 25.3147L13.513 25.3125L15.0255 22.3125C15.2741 21.8194 15.8755 21.6211 16.3686 21.8698C16.8618 22.1184 17.06 22.7197 16.8114 23.2129L15.3031 26.2045C15.1052 26.6132 14.7724 26.9414 14.3607 27.1336C13.9472 27.3265 13.4798 27.3703 13.0378 27.2577C9.85584 26.4777 7.05447 25.1161 4.98701 23.3171L4.98183 23.3126C4.69336 23.0581 4.4839 22.7262 4.37821 22.3563C4.27256 21.9865 4.27508 21.5942 4.38546 21.2258C4.38543 21.2259 4.38549 21.2257 4.38546 21.2258L8.62136 7.08117C8.70588 6.78887 8.85723 6.52019 9.06348 6.29638C9.26754 6.07496 9.51976 5.90352 9.80056 5.79524C11.0484 5.28409 12.3387 4.88344 13.6567 4.59788C14.1391 4.49279 14.6433 4.5687 15.0735 4.81121C15.5042 5.05409 15.8305 5.44708 15.99 5.91518L15.9929 5.92385L16.9804 8.91136C17.1537 9.43574 16.8692 10.0013 16.3448 10.1747C15.8204 10.348 15.2548 10.0634 15.0815 9.53905L14.0965 6.55937C14.0955 6.55684 14.0936 6.55473 14.0912 6.55337Z" fill="#858584"/>
</g>
<defs>
<filter id="filter0_d_5202_4485" x="-0.707031" y="0" width="40" height="40" filterUnits="userSpaceOnUse" color-interpolation-filters="sRGB">
<feFlood flood-opacity="0" result="BackgroundImageFix"/>
<feColorMatrix in="SourceAlpha" type="matrix" values="0 0 0 0 0 0 0 0 0 0 0 0 0 0 0 0 0 0 127 0" result="hardAlpha"/>
<feOffset dy="4"/>
<feGaussianBlur stdDeviation="2"/>
<feComposite in2="hardAlpha" operator="out"/>
<feColorMatrix type="matrix" values="0 0 0 0 0 0 0 0 0 0 0 0 0 0 0 0 0 0 0.25 0"/>
<feBlend mode="normal" in2="BackgroundImageFix" result="effect1_dropShadow_5202_4485"/>
<feBlend mode="normal" in="SourceGraphic" in2="effect1_dropShadow_5202_4485" result="shape"/>
</filter>
</defs>
</svg>
